<svg xmlns="http://www.w3.org/2000/svg" viewBox="0 0 71.17 73.64"><defs><style>.cls-1{fill:#cbcbca;}.cls-2{fill:#642165;}.cls-3{fill:#f26722;}</style></defs><title>hotbotAsset 141</title><g id="Layer_2" data-name="Layer 2"><g id="with_background" data-name="with background"><path id="inner_color" data-name="inner color" class="cls-1" d="M19.54,22.19l2.57,7.1H21.7a5.92,5.92,0,0,1-3.46-10.71Zm47.24-3.43L63,29.3h.12a5.91,5.91,0,0,0,3.68-10.54ZM18.13,12l3.47,9.61,4.75,13.12h32.4L67,12Z"/><path id="shape" class="cls-2" d="M67.54,16.66l2.11-5.87a.74.74,0,0,0-.7-1H17.36L15.45,4.52a1.15,1.15,0,0,0-1.08-.76H10.55a4.85,4.85,0,1,0,0,2.15h3.12l1.4,3.89,4.47,12.39,2.57,7.1H21.7a5.92,5.92,0,0,1-3.46-10.71l-.75-2.08A8.06,8.06,0,0,0,21.7,31.45a8.92,8.92,0,0,0,1.16-.08L27.6,44.14a1.14,1.14,0,0,0,1.08.75H59.87A1.07,1.07,0,0,0,61,43.82h0a1.07,1.07,0,0,0-1.07-1.08H29.25l-2.13-5.91H59.33A1.3,1.3,0,0,0,60.57,36l1.65-4.55a6.4,6.4,0,0,0,.88.05,8.06,8.06,0,0,0,4.44-14.79ZM8.51,5.13a2.69,2.69,0,1,1-3-3A2.68,2.68,0,0,1,8.51,5.13ZM58.75,34.68H26.35L21.6,21.56,18.13,12H67ZM63.1,29.3H63l3.8-10.54A5.91,5.91,0,0,1,63.1,29.3ZM29.54,46a4.84,4.84,0,1,0,4.52,4.51A4.84,4.84,0,0,0,29.54,46ZM31.9,51.1a2.69,2.69,0,1,1-3-3A2.68,2.68,0,0,1,31.9,51.1Zm27.22-4.85a4.84,4.84,0,1,0,4.51,4.51A4.84,4.84,0,0,0,59.12,46.25Zm2.35,5.12a2.69,2.69,0,1,1-3-3A2.68,2.68,0,0,1,61.47,51.37ZM38.68,28.23h9.2c-.1,1.3-2.15,2.35-4.6,2.35S38.78,29.53,38.68,28.23Zm.49-6.64a5,5,0,0,1-4.75,4.75,4.93,4.93,0,0,1-3-.82l6.89-6.89A4.94,4.94,0,0,1,39.17,21.59ZM37,17.25l-6.9,6.9a5,5,0,0,1,6.9-6.9Zm21.28,4.34a5,5,0,0,1-4.75,4.75,4.91,4.91,0,0,1-3-.82l6.89-6.89A5.09,5.09,0,0,1,58.26,21.59Zm-2.19-4.34-6.91,6.9a4.89,4.89,0,0,1-.84-3,5,5,0,0,1,7.75-3.92Z"/><path class="cls-2" d="M59.47,61.13a4.57,4.57,0,1,0,4.26,4.26A4.57,4.57,0,0,0,59.47,61.13Zm2.23,4.71a.53.53,0,0,1,0,.13h0c0,.13,0,.25-.07.37l0,.11a2.52,2.52,0,0,1-.12.29s0,0,0,.06a3.21,3.21,0,0,1-.19.31l-.06.08a2,2,0,0,1-.23.28l0,0a2,2,0,0,1-.27.23l-.08.06a3.14,3.14,0,0,1-.31.18l-.06,0-.3.11-.1,0a2.2,2.2,0,0,1-.37.07h-.59a2.29,2.29,0,0,1-.36-.07l-.11,0L58.11,68l-.06,0a3.14,3.14,0,0,1-.31-.18l-.08-.06a3.11,3.11,0,0,1-.28-.23l0,0a3.11,3.11,0,0,1-.23-.28l-.06-.08a3.14,3.14,0,0,1-.18-.31l0-.06a2.49,2.49,0,0,1-.11-.29l0-.11a2.2,2.2,0,0,1-.07-.37h0v-.13a1.13,1.13,0,0,1,0-.3V65.4a2.2,2.2,0,0,1,.07-.37l0-.1c0-.1.07-.2.11-.3l0-.06a3.14,3.14,0,0,1,.18-.31l.06-.08a2,2,0,0,1,.23-.27l0,0a2,2,0,0,1,.28-.23l.08-.06.31-.19.06,0a2.52,2.52,0,0,1,.29-.12l.11,0a2.29,2.29,0,0,1,.36-.07h.59a2.2,2.2,0,0,1,.37.07l.1,0,.3.12.06,0,.31.19.08.06a1.49,1.49,0,0,1,.27.23l0,0a2,2,0,0,1,.23.27l.06.08a3.21,3.21,0,0,1,.19.31s0,0,0,.06.08.2.12.3l0,.1c0,.12.05.24.07.37v0a.49.49,0,0,1,0,.12s0,.1,0,.15S61.7,65.79,61.7,65.84Z"/><path class="cls-2" d="M70.41,61.27H63.74a.56.56,0,0,0-.6.51v.68a.56.56,0,0,0,.6.5h1.51a.55.55,0,0,1,.59.5v5.95a.55.55,0,0,0,.59.5h1.28a.56.56,0,0,0,.6-.5V63.46a.55.55,0,0,1,.59-.5h1.51a.55.55,0,0,0,.59-.5v-.68A.55.55,0,0,0,70.41,61.27Z"/><path class="cls-2" d="M53.41,66.07a2.68,2.68,0,0,0-.76-.43,4.56,4.56,0,0,0-.95-.25,3.17,3.17,0,0,0,1.51-.78,1.77,1.77,0,0,0,.52-1.32,1.52,1.52,0,0,0-.23-.8,2.14,2.14,0,0,0-.67-.63,3.58,3.58,0,0,0-1.08-.43,5.8,5.8,0,0,0-1.45-.16h-3a.55.55,0,0,0-.59.51v7.63a.55.55,0,0,0,.59.5h2.52a8.55,8.55,0,0,0,1.75-.16,4.82,4.82,0,0,0,1.36-.47,2.4,2.4,0,0,0,.86-.77,1.81,1.81,0,0,0,.3-1,1.71,1.71,0,0,0-.18-.8A1.84,1.84,0,0,0,53.41,66.07Zm-4.3-2.71a.55.55,0,0,1,.59-.5H50a1.71,1.71,0,0,1,1,.23.72.72,0,0,1,.35.65.82.82,0,0,1-.4.73,1.94,1.94,0,0,1-1,.25H49.7a.55.55,0,0,1-.59-.5ZM51.27,68a2.09,2.09,0,0,1-1.28.3H49.7a.55.55,0,0,1-.59-.5v-1a.55.55,0,0,1,.59-.5h.23a2.65,2.65,0,0,1,1.27.25.82.82,0,0,1,.46.75A.89.89,0,0,1,51.27,68Z"/><path class="cls-2" d="M28.43,61.27H27.15a.55.55,0,0,0-.59.51v2.38a.56.56,0,0,1-.6.5H23.48a.56.56,0,0,1-.6-.5V61.78a.55.55,0,0,0-.59-.51H21a.55.55,0,0,0-.59.51v7.63a.55.55,0,0,0,.59.5h1.28a.55.55,0,0,0,.59-.5V66.9a.56.56,0,0,1,.6-.5H26a.56.56,0,0,1,.6.5v2.51a.55.55,0,0,0,.59.5h1.28a.55.55,0,0,0,.59-.5V61.78A.55.55,0,0,0,28.43,61.27Z"/><path class="cls-2" d="M45.82,61.27H39.15a.55.55,0,0,0-.59.51v.68a.55.55,0,0,0,.59.5h1.51a.55.55,0,0,1,.59.5v5.95a.55.55,0,0,0,.59.5h1.29a.55.55,0,0,0,.59-.5V63.46a.55.55,0,0,1,.59-.5h1.51a.55.55,0,0,0,.59-.5v-.68A.55.55,0,0,0,45.82,61.27Z"/><path class="cls-2" d="M34.4,61.13a4.57,4.57,0,1,0,4.26,4.26A4.57,4.57,0,0,0,34.4,61.13Zm2.23,4.71a.53.53,0,0,1,0,.13h0a2.2,2.2,0,0,1-.07.37l0,.11a1.48,1.48,0,0,1-.12.29s0,0,0,.06a2,2,0,0,1-.19.31l-.06.08a2,2,0,0,1-.23.28l0,0a2,2,0,0,1-.27.23l-.08.06a3.14,3.14,0,0,1-.31.18l-.06,0a2.09,2.09,0,0,1-.3.11l-.1,0a2.2,2.2,0,0,1-.37.07h-.58a2.2,2.2,0,0,1-.37-.07l-.1,0A2.09,2.09,0,0,1,33,68L33,68a3.14,3.14,0,0,1-.31-.18l-.08-.06a3.11,3.11,0,0,1-.28-.23v0a2,2,0,0,1-.23-.28L32,67.12a2,2,0,0,1-.19-.31.14.14,0,0,1,0-.06,1.48,1.48,0,0,1-.12-.29l0-.11a2.2,2.2,0,0,1-.07-.37h0v-.13s0-.1,0-.15,0-.1,0-.15V65.4a2.2,2.2,0,0,1,.07-.37l0-.1a1.88,1.88,0,0,1,.12-.3.14.14,0,0,1,0-.06,2,2,0,0,1,.19-.31.42.42,0,0,1,.06-.08,1.49,1.49,0,0,1,.23-.27v0a2,2,0,0,1,.28-.23l.08-.06.31-.19.06,0a2.08,2.08,0,0,1,.3-.12l.1,0a2.2,2.2,0,0,1,.37-.07h.58a2.2,2.2,0,0,1,.37.07l.1,0a2.08,2.08,0,0,1,.3.12l.06,0,.31.19.08.06a2,2,0,0,1,.28.23v0a1.49,1.49,0,0,1,.23.27l.06.08a2,2,0,0,1,.19.31s0,0,0,.06a1.88,1.88,0,0,1,.12.3l0,.1a2.2,2.2,0,0,1,.07.37v0a.49.49,0,0,1,0,.12s0,.1,0,.15S36.63,65.79,36.63,65.84Z"/><path class="cls-3" d="M16.17,60,4,72.18A8.81,8.81,0,0,0,16.17,60Z"/><path class="cls-3" d="M8.45,56A8.83,8.83,0,0,0,1.5,69.76L13.74,57.52A8.85,8.85,0,0,0,8.45,56Z"/></g></g></svg>