<svg xmlns="http://www.w3.org/2000/svg" viewBox="0 0 156.35 19.1"><defs><style>.cls-1{fill:#606;}.cls-2{fill:#f26722;}.cls-3{fill:#069;}.cls-4{fill:#ccc;}.cls-5{fill:#d1e7c5;}</style></defs><title>hotbotAsset 151</title><g id="Layer_2" data-name="Layer 2"><g id="with_background" data-name="with background"><path class="cls-1" d="M17.52,4.29,4.29,17.52A9.46,9.46,0,0,0,10,19.09,9.57,9.57,0,0,0,19.09,10,9.46,9.46,0,0,0,17.52,4.29Z"/><path class="cls-1" d="M9.16,0A9.57,9.57,0,0,0,0,9.16a9.44,9.44,0,0,0,1.62,5.73L14.89,1.63A9.44,9.44,0,0,0,9.16,0Z"/><path class="cls-2" d="M51.83,4.29,38.6,17.52a9.46,9.46,0,0,0,5.69,1.57,9.54,9.54,0,0,0,7.54-14.8Z"/><path class="cls-2" d="M43.48,0a9.55,9.55,0,0,0-7.54,14.88L49.2,1.63A9.43,9.43,0,0,0,43.48,0Z"/><path class="cls-3" d="M86.15,4.29,72.91,17.52a9.48,9.48,0,0,0,5.69,1.57,9.55,9.55,0,0,0,7.55-14.8Z"/><path class="cls-3" d="M77.79,0a9.54,9.54,0,0,0-7.53,14.88L83.52,1.63A9.48,9.48,0,0,0,77.79,0Z"/><path class="cls-4" d="M154.77,4.29,141.54,17.52a9.46,9.46,0,0,0,5.69,1.57A9.57,9.57,0,0,0,156.34,10,9.46,9.46,0,0,0,154.77,4.29Z"/><path class="cls-4" d="M146.41,0a9.57,9.57,0,0,0-9.15,9.15,9.44,9.44,0,0,0,1.62,5.73L152.14,1.63A9.44,9.44,0,0,0,146.41,0Z"/><path class="cls-5" d="M120.46,4.29,107.23,17.52a9.46,9.46,0,0,0,5.69,1.57,9.55,9.55,0,0,0,7.54-14.8Z"/><path class="cls-5" d="M112.1,0a9.54,9.54,0,0,0-7.53,14.88L117.83,1.63A9.46,9.46,0,0,0,112.1,0Z"/></g></g></svg>