<svg xmlns="http://www.w3.org/2000/svg" xmlns:xlink="http://www.w3.org/1999/xlink" viewBox="0 0 1920 1080">
  <defs>
    <style>
      .cls-1 {
        clip-path: url(#clip-Web_1920_1);
      }

      .cls-2 {
        fill: #3d6bb4;
      }

      .cls-3 {
        fill: #fff;
      }

      .cls-4, .cls-7 {
        fill: none;
      }

      .cls-4 {
        stroke: #3d6bb4;
        stroke-width: 3px;
      }

      .cls-5 {
        fill: rgba(180,180,180,0.78);
        stroke: #95989a;
      }

      .cls-6 {
        stroke: none;
      }
    </style>
    <clipPath id="clip-Web_1920_1">
      <rect width="1920" height="1080"/>
    </clipPath>
  </defs>
  <g id="Web_1920_1" data-name="Web 1920 – 1" class="cls-1">
    <rect class="cls-3" width="1920" height="1080"/>
    <g id="sweetbot_logo_1_" transform="translate(0 89)">
      <path id="background_1_" class="cls-2" d="M0,0V91.843H334.165L426.076,0Z"/>
      <g id="logotype_1_" transform="translate(24.347 33.207)">
        <path id="Path_1" data-name="Path 1" class="cls-3" d="M53.855,65.364a6.268,6.268,0,0,1-1.082,3.652,6.767,6.767,0,0,1-3.043,2.57,11.69,11.69,0,0,1-4.8.947,10.27,10.27,0,0,1-5.478-1.285,7.813,7.813,0,0,1-2.5-2.435A5.673,5.673,0,0,1,36,65.9a2.183,2.183,0,0,1,.541-1.42,1.989,1.989,0,0,1,1.488-.609,1.63,1.63,0,0,1,1.217.473,4.255,4.255,0,0,1,.879,1.353,9.193,9.193,0,0,0,.947,1.826,4.227,4.227,0,0,0,1.42,1.217,4.924,4.924,0,0,0,2.367.473,5.649,5.649,0,0,0,3.314-.947A2.761,2.761,0,0,0,49.459,65.9a2.448,2.448,0,0,0-.676-1.826A4.567,4.567,0,0,0,47.024,63c-.744-.271-1.691-.473-2.908-.812a20.286,20.286,0,0,1-4.058-1.353,6.087,6.087,0,0,1-2.57-2.1,5.58,5.58,0,0,1-.947-3.246,5.651,5.651,0,0,1,1.014-3.314,6.584,6.584,0,0,1,2.908-2.232,11.582,11.582,0,0,1,4.531-.744,11.416,11.416,0,0,1,3.584.541,7.991,7.991,0,0,1,2.5,1.353,5.9,5.9,0,0,1,1.488,1.758,3.681,3.681,0,0,1,.473,1.826,2.219,2.219,0,0,1-.609,1.488,2.021,2.021,0,0,1-1.42.676,1.653,1.653,0,0,1-1.217-.406,5.867,5.867,0,0,1-.879-1.285A5.023,5.023,0,0,0,47.43,53.19a4.252,4.252,0,0,0-2.773-.744,5.206,5.206,0,0,0-2.841.744,2.256,2.256,0,0,0-1.082,1.894,2.1,2.1,0,0,0,.338,1.15,2.994,2.994,0,0,0,1.014.812,10.405,10.405,0,0,0,1.285.541c.406.135,1.15.338,2.164.609a31.111,31.111,0,0,1,3.449.947,11.971,11.971,0,0,1,2.638,1.285,5.246,5.246,0,0,1,1.691,1.961A8.053,8.053,0,0,1,53.855,65.364Z" transform="translate(-36 -49.132)"/>
        <path id="Path_2" data-name="Path 2" class="cls-3" d="M83.055,68.51,79.4,55.052,75.75,68.51c-.271,1.014-.541,1.758-.676,2.232a2.944,2.944,0,0,1-.879,1.217A2.531,2.531,0,0,1,72.5,72.5a3.144,3.144,0,0,1-1.42-.338,2.2,2.2,0,0,1-.879-.879,6.264,6.264,0,0,1-.541-1.353c-.135-.541-.271-1.014-.406-1.488l-3.72-15.149a10.332,10.332,0,0,1-.338-2.029,1.989,1.989,0,0,1,.609-1.488,2.1,2.1,0,0,1,1.488-.609,1.814,1.814,0,0,1,1.691.812,9.144,9.144,0,0,1,.744,2.3L72.639,65.4l3.314-12.241c.271-.947.473-1.623.676-2.164a3.532,3.532,0,0,1,.947-1.285,2.8,2.8,0,0,1,1.826-.541,2.728,2.728,0,0,1,1.758.541,3.448,3.448,0,0,1,.879,1.217c.135.406.406,1.15.676,2.164L86.03,65.331l2.976-13.12a14.037,14.037,0,0,1,.406-1.623,2.078,2.078,0,0,1,.676-1.014,1.744,1.744,0,0,1,1.353-.473,2.078,2.078,0,0,1,2.1,2.1,12.165,12.165,0,0,1-.338,2.029L89.48,68.375q-.406,1.522-.609,2.232a2.573,2.573,0,0,1-.879,1.217,2.531,2.531,0,0,1-1.691.541,2.662,2.662,0,0,1-1.691-.541,2.767,2.767,0,0,1-.879-1.15A17.352,17.352,0,0,1,83.055,68.51Z" transform="translate(-45.452 -49.1)"/>
        <path id="Path_3" data-name="Path 3" class="cls-3" d="M126.379,53.349H116.1v5.546h9.468a2.147,2.147,0,0,1,1.556.473,1.694,1.694,0,0,1,.541,1.217,1.447,1.447,0,0,1-.473,1.217,2.147,2.147,0,0,1-1.556.473h-9.468v6.357h10.55a2.222,2.222,0,0,1,1.623.473,1.778,1.778,0,0,1,.541,1.353,1.732,1.732,0,0,1-.541,1.285,2.222,2.222,0,0,1-1.623.473H114.34a2.87,2.87,0,0,1-2.164-.676,2.984,2.984,0,0,1-.676-2.1V52.673a3.7,3.7,0,0,1,.271-1.623,1.6,1.6,0,0,1,.879-.879,3.564,3.564,0,0,1,1.556-.271h12.038a2.222,2.222,0,0,1,1.623.473,1.8,1.8,0,0,1,0,2.57A1.954,1.954,0,0,1,126.379,53.349Z" transform="translate(-60.439 -49.359)"/>
        <path id="Path_4" data-name="Path 4" class="cls-3" d="M157.311,53.349h-10.28v5.546H156.5a2.147,2.147,0,0,1,1.556.473,1.694,1.694,0,0,1,.541,1.217,1.447,1.447,0,0,1-.473,1.217,2.147,2.147,0,0,1-1.556.473H147.1v6.357h10.618a2.222,2.222,0,0,1,1.623.473,1.778,1.778,0,0,1,.541,1.353,1.732,1.732,0,0,1-.541,1.285,2.222,2.222,0,0,1-1.623.473H145.34a2.87,2.87,0,0,1-2.164-.676,2.984,2.984,0,0,1-.676-2.1V52.673a3.7,3.7,0,0,1,.271-1.623,1.6,1.6,0,0,1,.879-.879,3.564,3.564,0,0,1,1.556-.271h12.038a2.222,2.222,0,0,1,1.623.473,1.8,1.8,0,0,1,0,2.57A2.261,2.261,0,0,1,157.311,53.349Z" transform="translate(-70.473 -49.359)"/>
        <path id="Path_5" data-name="Path 5" class="cls-3" d="M187.137,53.62H182.2v16.3a3.1,3.1,0,0,1-.609,2.1,2.286,2.286,0,0,1-3.246,0,3.1,3.1,0,0,1-.609-2.1V53.62H172.8a2.728,2.728,0,0,1-1.758-.541,1.649,1.649,0,0,1-.541-1.353,1.612,1.612,0,0,1,.609-1.353A2.52,2.52,0,0,1,172.8,49.9h14.473a2.6,2.6,0,0,1,1.758.541,1.649,1.649,0,0,1,.541,1.353,1.7,1.7,0,0,1-.609,1.353A3.638,3.638,0,0,1,187.137,53.62Z" transform="translate(-79.536 -49.359)"/>
        <path id="Path_6" data-name="Path 6" class="cls-3" d="M212.136,72.321h-6.831a2.607,2.607,0,0,1-2.1-.676,3.1,3.1,0,0,1-.609-2.1V52.641a2.87,2.87,0,0,1,.676-2.164,2.984,2.984,0,0,1,2.1-.676h7.3a16.051,16.051,0,0,1,2.773.2,6.406,6.406,0,0,1,2.1.744,6.151,6.151,0,0,1,1.42,1.217,4.881,4.881,0,0,1,.947,1.623,5.867,5.867,0,0,1,.338,1.894,5.19,5.19,0,0,1-3.382,4.937c2.976.947,4.4,2.773,4.4,5.478a6.358,6.358,0,0,1-.947,3.382,5.671,5.671,0,0,1-2.638,2.232,10.975,10.975,0,0,1-2.367.609A22.843,22.843,0,0,1,212.136,72.321Zm-5.072-19.072v5.816h4.193a8.6,8.6,0,0,0,2.638-.338,2.91,2.91,0,0,0,1.826-2.638,2.149,2.149,0,0,0-1.217-2.232,8.788,8.788,0,0,0-3.72-.541h-3.72Zm4.734,9.063h-4.734v6.56h4.869c3.043,0,4.6-1.082,4.6-3.314a2.586,2.586,0,0,0-1.217-2.435A6.138,6.138,0,0,0,211.8,62.312Z" transform="translate(-89.927 -49.327)"/>
        <path id="Path_7" data-name="Path 7" class="cls-3" d="M245.289,49.3a12.188,12.188,0,0,1,6.019,1.42,9.168,9.168,0,0,1,3.787,4.058,13.529,13.529,0,0,1,1.285,6.154,14.831,14.831,0,0,1-.676,4.734,10.614,10.614,0,0,1-2.1,3.72,9.525,9.525,0,0,1-3.449,2.367,12.613,12.613,0,0,1-4.734.812,11.817,11.817,0,0,1-4.734-.879,8.5,8.5,0,0,1-3.449-2.367,11.091,11.091,0,0,1-2.1-3.72,15.1,15.1,0,0,1-.744-4.734,14.79,14.79,0,0,1,.744-4.734,9.893,9.893,0,0,1,2.164-3.652,9.368,9.368,0,0,1,3.449-2.3A10.629,10.629,0,0,1,245.289,49.3Zm6.493,11.565a10.411,10.411,0,0,0-.812-4.261,5.7,5.7,0,0,0-2.3-2.705,6.358,6.358,0,0,0-3.382-.947,6.15,6.15,0,0,0-2.5.541,5.225,5.225,0,0,0-1.961,1.488,6.735,6.735,0,0,0-1.285,2.5,13.281,13.281,0,0,0-.473,3.449,10.912,10.912,0,0,0,.473,3.449,7.145,7.145,0,0,0,1.353,2.57,6.274,6.274,0,0,0,2.029,1.556,6.114,6.114,0,0,0,2.5.473A5.778,5.778,0,0,0,248.6,68.1a6.1,6.1,0,0,0,2.3-2.705A11.508,11.508,0,0,0,251.781,60.865Z" transform="translate(-100.22 -49.165)"/>
        <path id="Path_8" data-name="Path 8" class="cls-3" d="M284.372,53.62h-4.937v16.3a3.1,3.1,0,0,1-.609,2.1,2.286,2.286,0,0,1-3.246,0,3.1,3.1,0,0,1-.609-2.1V53.62H269.9a2.728,2.728,0,0,1-1.758-.541,1.649,1.649,0,0,1-.541-1.353,1.612,1.612,0,0,1,.609-1.353A2.52,2.52,0,0,1,269.9,49.9h14.473a2.6,2.6,0,0,1,1.758.541,1.649,1.649,0,0,1,.541,1.353,1.7,1.7,0,0,1-.609,1.353A2.653,2.653,0,0,1,284.372,53.62Z" transform="translate(-110.966 -49.359)"/>
        <path id="Path_9" data-name="Path 9" class="cls-3" d="M296.6,81.4a2.423,2.423,0,0,1-1.623-.609A2.056,2.056,0,0,1,294.3,79.1a2.2,2.2,0,0,1,.676-1.623,2.286,2.286,0,0,1,3.246,0A2.2,2.2,0,0,1,298.9,79.1a2.056,2.056,0,0,1-.676,1.691A2.423,2.423,0,0,1,296.6,81.4Z" transform="translate(-119.609 -58.066)"/>
        <path id="Path_10" data-name="Path 10" class="cls-3" d="M311.373,49.8h5.952a17.26,17.26,0,0,1,3.99.406,6.8,6.8,0,0,1,2.976,1.623c2.367,2.029,3.517,5.072,3.517,9.13a21.11,21.11,0,0,1-.338,3.72,11.638,11.638,0,0,1-1.082,3.043,9.126,9.126,0,0,1-1.894,2.367,8.9,8.9,0,0,1-1.961,1.285,9,9,0,0,1-2.3.676,17.193,17.193,0,0,1-2.773.2h-5.952a3.75,3.75,0,0,1-1.894-.406,1.867,1.867,0,0,1-.812-1.082,6.273,6.273,0,0,1-.2-1.758V52.641a2.5,2.5,0,0,1,2.773-2.841Zm1.826,3.652V68.669h3.449a12.565,12.565,0,0,0,1.758-.068,5.649,5.649,0,0,0,1.353-.338,3.546,3.546,0,0,0,1.217-.676c1.555-1.285,2.3-3.517,2.3-6.628a9.89,9.89,0,0,0-1.014-5,4.376,4.376,0,0,0-2.5-2.1,13.153,13.153,0,0,0-3.584-.473H313.2Z" transform="translate(-124.238 -49.327)"/>
        <path id="Path_11" data-name="Path 11" class="cls-3" d="M357.679,53.349H347.4v5.546h9.468a2.147,2.147,0,0,1,1.555.473,1.694,1.694,0,0,1,.541,1.217,1.447,1.447,0,0,1-.473,1.217,2.147,2.147,0,0,1-1.556.473h-9.468v6.357h10.618a2.222,2.222,0,0,1,1.623.473,1.778,1.778,0,0,1,.541,1.353,1.732,1.732,0,0,1-.541,1.285,2.222,2.222,0,0,1-1.623.473H345.641a2.87,2.87,0,0,1-2.164-.676,2.984,2.984,0,0,1-.676-2.1V52.673a3.7,3.7,0,0,1,.271-1.623,1.6,1.6,0,0,1,.879-.879,3.564,3.564,0,0,1,1.555-.271h12.038a2.222,2.222,0,0,1,1.623.473,1.8,1.8,0,0,1,0,2.57A1.954,1.954,0,0,1,357.679,53.349Z" transform="translate(-135.308 -49.359)"/>
        <path id="Path_12" data-name="Path 12" class="cls-3" d="M390.555,65.364a6.268,6.268,0,0,1-1.082,3.652,6.767,6.767,0,0,1-3.043,2.57,11.69,11.69,0,0,1-4.8.947,10.27,10.27,0,0,1-5.478-1.285,7.814,7.814,0,0,1-2.5-2.435A5.673,5.673,0,0,1,372.7,65.9a2.182,2.182,0,0,1,.541-1.42,1.988,1.988,0,0,1,1.488-.609,1.63,1.63,0,0,1,1.217.473,4.255,4.255,0,0,1,.879,1.353,9.193,9.193,0,0,0,.947,1.826,4.227,4.227,0,0,0,1.42,1.217,4.924,4.924,0,0,0,2.367.473,5.649,5.649,0,0,0,3.314-.947,2.927,2.927,0,0,0,1.285-2.367,2.448,2.448,0,0,0-.676-1.826A4.567,4.567,0,0,0,383.724,63c-.744-.271-1.691-.473-2.908-.812a20.287,20.287,0,0,1-4.058-1.353,6.086,6.086,0,0,1-2.57-2.1,5.58,5.58,0,0,1-.947-3.246,5.651,5.651,0,0,1,1.014-3.314,6.584,6.584,0,0,1,2.908-2.232,11.583,11.583,0,0,1,4.531-.744,11.416,11.416,0,0,1,3.584.541,7.99,7.99,0,0,1,2.5,1.353,5.9,5.9,0,0,1,1.488,1.758,3.681,3.681,0,0,1,.473,1.826,2.219,2.219,0,0,1-.609,1.488,2.022,2.022,0,0,1-1.42.676,1.653,1.653,0,0,1-1.217-.406,5.867,5.867,0,0,1-.879-1.285,5.023,5.023,0,0,0-1.488-1.961,4.384,4.384,0,0,0-2.773-.744,5.206,5.206,0,0,0-2.841.744,2.256,2.256,0,0,0-1.082,1.894,2.1,2.1,0,0,0,.338,1.15,3,3,0,0,0,1.014.812,10.406,10.406,0,0,0,1.285.541c.406.135,1.15.338,2.164.609a31.111,31.111,0,0,1,3.449.947,11.971,11.971,0,0,1,2.638,1.285,5.246,5.246,0,0,1,1.691,1.961A8.053,8.053,0,0,1,390.555,65.364Z" transform="translate(-144.986 -49.132)"/>
        <path id="Path_13" data-name="Path 13" class="cls-3" d="M405.1,69.725V52.073a3.1,3.1,0,0,1,.609-2.1,2,2,0,0,1,1.623-.676,2.243,2.243,0,0,1,1.691.676,3.1,3.1,0,0,1,.609,2.1V69.792a3.1,3.1,0,0,1-.609,2.1,2.056,2.056,0,0,1-1.691.676,2,2,0,0,1-1.623-.676A3.432,3.432,0,0,1,405.1,69.725Z" transform="translate(-155.474 -49.165)"/>
        <path id="Path_14" data-name="Path 14" class="cls-3" d="M439.439,63.061V67.39a6.974,6.974,0,0,1-.135,1.353,2.836,2.836,0,0,1-.609.947,5.619,5.619,0,0,1-1.15.812,17.248,17.248,0,0,1-3.923,1.623,16.061,16.061,0,0,1-4.125.473,13.118,13.118,0,0,1-4.734-.812,9.737,9.737,0,0,1-5.952-5.952,13.5,13.5,0,0,1-.812-4.8,13.762,13.762,0,0,1,.812-4.8,10.46,10.46,0,0,1,2.3-3.72,9.9,9.9,0,0,1,3.72-2.3,14,14,0,0,1,4.937-.812,12.066,12.066,0,0,1,3.99.609,8.149,8.149,0,0,1,2.841,1.556,6.118,6.118,0,0,1,1.623,1.961,4.251,4.251,0,0,1,.541,1.826,2.1,2.1,0,0,1-.609,1.488,2.143,2.143,0,0,1-1.556.609,2.387,2.387,0,0,1-.947-.2,1.752,1.752,0,0,1-.744-.676,11.421,11.421,0,0,0-1.42-1.961,4.664,4.664,0,0,0-1.556-1.15,5.512,5.512,0,0,0-2.5-.473,7.59,7.59,0,0,0-2.841.541,5.331,5.331,0,0,0-2.1,1.556,7.419,7.419,0,0,0-1.353,2.5,10.334,10.334,0,0,0-.473,3.314,9.087,9.087,0,0,0,1.826,6.087,6.3,6.3,0,0,0,5.072,2.1,10.548,10.548,0,0,0,2.976-.406,16.673,16.673,0,0,0,2.841-1.15V63.873h-3.517a3.424,3.424,0,0,1-1.894-.406,1.454,1.454,0,0,1-.676-1.285,1.584,1.584,0,0,1,.541-1.217,2.076,2.076,0,0,1,1.488-.473h5.14a11.221,11.221,0,0,1,1.623.135,1.974,1.974,0,0,1,1.082.744A4.282,4.282,0,0,1,439.439,63.061Z" transform="translate(-159.649 -49.197)"/>
        <path id="Path_15" data-name="Path 15" class="cls-3" d="M462.019,51.973l8.724,13.256V51.838a3.224,3.224,0,0,1,.541-1.961,2.049,2.049,0,0,1,1.488-.676,1.87,1.87,0,0,1,1.556.676,2.725,2.725,0,0,1,.541,1.961V69.489c0,1.961-.812,2.976-2.435,2.976a2.8,2.8,0,0,1-1.082-.2,3.39,3.39,0,0,1-.947-.541,10.407,10.407,0,0,1-.812-.879c-.271-.338-.473-.676-.744-1.082l-8.522-13.053V69.9a2.839,2.839,0,0,1-.609,1.961,2.085,2.085,0,0,1-1.556.676,1.87,1.87,0,0,1-1.555-.676A2.839,2.839,0,0,1,456,69.9V52.514a4.369,4.369,0,0,1,.271-1.758,3.093,3.093,0,0,1,.947-1.15,2.9,2.9,0,0,1,1.488-.406,2.8,2.8,0,0,1,1.082.2,3,3,0,0,1,.744.541,4.963,4.963,0,0,1,.676.879C461.478,51.229,461.749,51.567,462.019,51.973Z" transform="translate(-171.949 -49.132)"/>
      </g>
    </g>
    <line id="Line_1" data-name="Line 1" class="cls-4" x2="1161" transform="translate(689.5 180.5)"/>
    <g id="Rectangle_1" data-name="Rectangle 1" class="cls-5" transform="translate(355 570)">
      <rect class="cls-6" width="369" height="369"/>
      <rect class="cls-7" x="0.5" y="0.5" width="368" height="368"/>
    </g>
    <g id="Rectangle_2" data-name="Rectangle 2" class="cls-5" transform="translate(842 570)">
      <rect class="cls-6" width="369" height="369"/>
      <rect class="cls-7" x="0.5" y="0.5" width="368" height="368"/>
    </g>
    <g id="Rectangle_4" data-name="Rectangle 4" class="cls-5" transform="translate(355 290)">
      <rect class="cls-6" width="701" height="162"/>
      <rect class="cls-7" x="0.5" y="0.5" width="700" height="161"/>
    </g>
    <g id="Rectangle_3" data-name="Rectangle 3" class="cls-5" transform="translate(1329 570)">
      <rect class="cls-6" width="369" height="369"/>
      <rect class="cls-7" x="0.5" y="0.5" width="368" height="368"/>
    </g>
  </g>
</svg>
