<svg xmlns="http://www.w3.org/2000/svg" viewBox="0 0 1028.29 1028.29"><defs><style>.cls-1{fill:#dcddde;stroke:#fff;stroke-miterlimit:10;stroke-width:4.29px;}.cls-2{fill:#fff;}.cls-3{fill:#ff3f4f;}</style></defs><title>Asset 1</title><g id="Layer_2" data-name="Layer 2"><g id="App_Icon_Kit_B" data-name="App Icon Kit B"><g id="App_Icon_and_Badge" data-name="App Icon and Badge"><g id="Main"><rect class="cls-1" x="2.14" y="2.14" width="1024" height="1024" rx="231.17" ry="231.17"/><path class="cls-2" d="M499.45,62.52C255,62.52,56.14,261.39,56.14,505.83S255,949.14,499.45,949.14,942.77,750.27,942.77,505.83,743.9,62.52,499.45,62.52Zm0,836.44C282.68,899,106.33,722.6,106.33,505.83S282.68,112.71,499.45,112.71,892.58,289.06,892.58,505.83,716.23,899,499.45,899Z"/><path class="cls-2" d="M685.78,437.16H313.13V713.67H685.78ZM583.54,582.26a80.47,80.47,0,0,1-159.89,0,75.85,75.85,0,0,1,0-18.4,80.47,80.47,0,0,1,159.89,0,75.85,75.85,0,0,1,0,18.4Z"/><path class="cls-3" d="M293.86,434.92V723.31a9.64,9.64,0,0,0,9.64,9.63H695.41a9.63,9.63,0,0,0,9.63-9.63V434.92Zm19.27,2.24H685.78V713.67H313.13Z"/><path class="cls-2" d="M281.89,412.73H717L499.45,227.64ZM503.47,292.67a39.69,39.69,0,0,1,38.23,37.51c0,.71.21,1.38.21,2.09a40.84,40.84,0,0,1-30.08,38.41,39,39,0,0,1-8.36,1.19c-.44,0-.85.13-1.29.13a40.64,40.64,0,0,1-39.73-39.73c0-.71.17-1.38.21-2.09a39.7,39.7,0,0,1,32.44-36.93,40.27,40.27,0,0,1,7.08-.71C502.62,292.54,503,292.66,503.47,292.67Z"/><path class="cls-3" d="M754.36,415.38,506.64,204.63a11.1,11.1,0,0,0-14.37,0L244.55,415.38a11.09,11.09,0,0,0,7.19,19.54H747.17a11.09,11.09,0,0,0,7.19-19.54Zm-472.47-2.65L499.46,227.64,717,412.73Z"/><g id="window_small" data-name="window small"><path class="cls-3" d="M492.38,293.25a39.61,39.61,0,0,0-31.09,28.57h31.09Z"/><path class="cls-3" d="M492.38,354.56v-16h-32a39.6,39.6,0,0,0,32,32.74V354.56Z"/><path class="cls-3" d="M509.11,354v16.72a39.57,39.57,0,0,0,29.44-32.13H509.11Z"/><path class="cls-3" d="M537.62,321.82a39.6,39.6,0,0,0-28.51-28v28Z"/><path class="cls-2" d="M492.38,321.82H461.29a39.66,39.66,0,0,0-1.36,8.36c0,.71-.21,1.38-.21,2.09a39.43,39.43,0,0,0,.64,6.28h32v32.74a39.32,39.32,0,0,0,7.07.71c.45,0,.86-.11,1.3-.13a39,39,0,0,0,8.36-1.19V338.55h29.44a39.43,39.43,0,0,0,.64-6.28c0-.71-.18-1.38-.22-2.09a39,39,0,0,0-1.35-8.36H509.11v-28a39.66,39.66,0,0,0-8.36-1.19c-.44,0-.85-.13-1.3-.13a40.25,40.25,0,0,0-7.07.71Z"/></g><path class="cls-3" d="M488,672.42v-88.2h-88.2A100.36,100.36,0,0,0,488,672.42Z"/><path class="cls-3" d="M510.93,672.42a100.34,100.34,0,0,0,88.19-88.2H510.93Z"/><path class="cls-3" d="M510.93,473.08v88.2h88.19A100.33,100.33,0,0,0,510.93,473.08Z"/><path class="cls-3" d="M399.78,561.28H488v-88.2A100.35,100.35,0,0,0,399.78,561.28Z"/><path class="cls-2" d="M510.93,561.28v-88.2a94.4,94.4,0,0,0-22.95,0v88.2H399.79a93,93,0,0,0,0,22.94H488v88.2a94.4,94.4,0,0,0,22.95,0v-88.2h88.19a93,93,0,0,0,0-22.94Z"/></g></g></g></g></svg>