<svg xmlns="http://www.w3.org/2000/svg" viewBox="0 0 101.05 25.09"><defs><style>.cls-1{fill:#606;}.cls-2{fill:#f26722;}</style></defs><title>hotbotAsset 21</title><g id="Layer_2" data-name="Layer 2"><g id="with_background" data-name="with background"><path class="cls-1" d="M84.64,7.28a6.5,6.5,0,1,0,6.06,6.06A6.51,6.51,0,0,0,84.64,7.28ZM87.81,14a1,1,0,0,1,0,.17v0a4.35,4.35,0,0,1-.1.52l0,.15a3.61,3.61,0,0,1-.16.42.2.2,0,0,1,0,.08,2.91,2.91,0,0,1-.26.45.76.76,0,0,0-.08.11,4.24,4.24,0,0,1-.33.39l0,0a4.24,4.24,0,0,1-.39.33l-.11.08a2.91,2.91,0,0,1-.45.26.2.2,0,0,1-.08,0,3.61,3.61,0,0,1-.42.16l-.15.05a4.35,4.35,0,0,1-.52.1h-.84a4.35,4.35,0,0,1-.52-.1l-.15-.05a3.61,3.61,0,0,1-.42-.16.2.2,0,0,1-.08,0,2.91,2.91,0,0,1-.45-.26l-.11-.08a4.24,4.24,0,0,1-.39-.33l0,0a4.24,4.24,0,0,1-.33-.39.76.76,0,0,0-.08-.11,2.91,2.91,0,0,1-.26-.45.2.2,0,0,1,0-.08,3.61,3.61,0,0,1-.16-.42l0-.15a4.35,4.35,0,0,1-.1-.52v0a1,1,0,0,1,0-.17,1.7,1.7,0,0,1,0-.22,1.62,1.62,0,0,1,0-.22,1,1,0,0,1,0-.17v0a4.35,4.35,0,0,1,.1-.52l0-.15a3,3,0,0,1,.16-.42.2.2,0,0,1,0-.08,2.91,2.91,0,0,1,.26-.45.76.76,0,0,0,.08-.11,4.24,4.24,0,0,1,.33-.39l0,0a4.24,4.24,0,0,1,.39-.33l.11-.08a2.91,2.91,0,0,1,.45-.26.2.2,0,0,1,.08,0,3.61,3.61,0,0,1,.42-.16l.15-.05a4.35,4.35,0,0,1,.52-.1h.84a4.35,4.35,0,0,1,.52.1l.15.05a3.61,3.61,0,0,1,.42.16.2.2,0,0,1,.08,0,2.91,2.91,0,0,1,.45.26l.11.08a4.24,4.24,0,0,1,.39.33l0,0a4.24,4.24,0,0,1,.33.39.76.76,0,0,0,.08.11,2.91,2.91,0,0,1,.26.45.2.2,0,0,1,0,.08,3.61,3.61,0,0,1,.16.42l0,.15a4.35,4.35,0,0,1,.1.52v0a1,1,0,0,1,0,.17,1.62,1.62,0,0,1,0,.22A1.7,1.7,0,0,1,87.81,14Z"/><path class="cls-1" d="M100.21,7.48h-9.5a.79.79,0,0,0-.84.72v1a.79.79,0,0,0,.84.72h2.15a.78.78,0,0,1,.84.72v8.46a.79.79,0,0,0,.85.72h1.82a.79.79,0,0,0,.85-.72V10.6a.78.78,0,0,1,.84-.72h2.15a.79.79,0,0,0,.84-.72v-1A.79.79,0,0,0,100.21,7.48Z"/><path class="cls-1" d="M76,14.3a4,4,0,0,0-1.08-.61,6.66,6.66,0,0,0-1.35-.35,4.55,4.55,0,0,0,2.16-1.11,2.55,2.55,0,0,0,.73-1.88,2,2,0,0,0-.33-1.13,3,3,0,0,0-1-.91,5.25,5.25,0,0,0-1.53-.61,8.71,8.71,0,0,0-2.07-.22H67.31a.79.79,0,0,0-.84.72V19.06a.79.79,0,0,0,.84.72h3.6a12.71,12.71,0,0,0,2.49-.23,7.27,7.27,0,0,0,1.93-.67,3.55,3.55,0,0,0,1.23-1.09A2.57,2.57,0,0,0,77,16.31a2.46,2.46,0,0,0-.26-1.14A2.7,2.7,0,0,0,76,14.3ZM69.9,10.45a.79.79,0,0,1,.84-.72h.36a2.52,2.52,0,0,1,1.4.33A1,1,0,0,1,73,11a1.18,1.18,0,0,1-.58,1,2.82,2.82,0,0,1-1.5.36h-.19a.79.79,0,0,1-.84-.71ZM73,17.1a3,3,0,0,1-1.83.43h-.4a.79.79,0,0,1-.84-.72V15.36a.79.79,0,0,1,.84-.72h.32a3.79,3.79,0,0,1,1.81.37,1.15,1.15,0,0,1,.65,1.07A1.27,1.27,0,0,1,73,17.1Z"/><path class="cls-1" d="M40.47,7.48H38.64a.78.78,0,0,0-.84.72v3.38a.79.79,0,0,1-.85.72H33.41a.79.79,0,0,1-.84-.72V8.2a.79.79,0,0,0-.84-.72H29.9a.78.78,0,0,0-.84.72V19.06a.78.78,0,0,0,.84.72h1.83a.79.79,0,0,0,.84-.72V15.49a.79.79,0,0,1,.84-.72H37a.79.79,0,0,1,.85.72v3.57a.78.78,0,0,0,.84.72h1.83a.79.79,0,0,0,.84-.72V8.2A.79.79,0,0,0,40.47,7.48Z"/><path class="cls-1" d="M65.21,7.48H55.72a.78.78,0,0,0-.84.72v1a.78.78,0,0,0,.84.72h2.15a.79.79,0,0,1,.84.72v8.46a.79.79,0,0,0,.84.72h1.83a.79.79,0,0,0,.84-.72V10.6a.79.79,0,0,1,.84-.72h2.15a.79.79,0,0,0,.85-.72v-1A.79.79,0,0,0,65.21,7.48Z"/><path class="cls-1" d="M49,7.28A6.5,6.5,0,1,0,55,13.34,6.51,6.51,0,0,0,49,7.28ZM52.13,14v.2a4.35,4.35,0,0,1-.1.52.88.88,0,0,1-.05.15,3.61,3.61,0,0,1-.16.42l0,.08a4.12,4.12,0,0,1-.27.45l-.08.11a3.09,3.09,0,0,1-.33.39l0,0a4.24,4.24,0,0,1-.39.33l-.11.08a2.51,2.51,0,0,1-.45.26.2.2,0,0,1-.08,0,3,3,0,0,1-.42.16l-.15.05a4.35,4.35,0,0,1-.52.1h-.83a4.51,4.51,0,0,1-.53-.1l-.14-.05a3.16,3.16,0,0,1-.43-.16l-.08,0a2.82,2.82,0,0,1-.44-.26l-.12-.08a4.24,4.24,0,0,1-.39-.33l0,0a4.16,4.16,0,0,1-.32-.39l-.09-.11a2.91,2.91,0,0,1-.26-.45.59.59,0,0,0,0-.08c-.06-.14-.11-.28-.16-.42a.83.83,0,0,1,0-.15,3,3,0,0,1-.11-.52v0a1,1,0,0,1,0-.17c0-.08,0-.15,0-.22s0-.15,0-.22a1,1,0,0,1,0-.17v0a3,3,0,0,1,.11-.52.83.83,0,0,1,0-.15c0-.14.1-.29.16-.42a.59.59,0,0,0,0-.08,4,4,0,0,1,.26-.45l.09-.11a4.16,4.16,0,0,1,.32-.39l0,0a4.24,4.24,0,0,1,.39-.33l.12-.08a2.82,2.82,0,0,1,.44-.26l.08,0a3.16,3.16,0,0,1,.43-.16l.14-.05a4.51,4.51,0,0,1,.53-.1H49a4.35,4.35,0,0,1,.52.1l.15.05a3,3,0,0,1,.42.16.2.2,0,0,1,.08,0,2.51,2.51,0,0,1,.45.26l.11.08a4.24,4.24,0,0,1,.39.33l0,0a3.09,3.09,0,0,1,.33.39l.08.11a4.12,4.12,0,0,1,.27.45l0,.08a3.61,3.61,0,0,1,.16.42.88.88,0,0,1,.05.15,4.35,4.35,0,0,1,.1.52v.2a1.62,1.62,0,0,1,0,.22A1.7,1.7,0,0,1,52.13,14Z"/><path class="cls-2" d="M23,5.63,5.63,23A12.54,12.54,0,0,0,23,5.63Z"/><path class="cls-2" d="M12,0A12.55,12.55,0,0,0,2.14,19.56L19.56,2.14A12.54,12.54,0,0,0,12,0Z"/></g></g></svg>